ModelForces
version=1
nRows=22
nColumns=21
inDegrees=no

This file contains the forces exerted on a model during a simulation.

A force is a generalized force, meaning that it can be either a force (N) or a torque (Nm).

Units are S.I. units (second, meters, Newtons, ...)
Angles are in degrees.

endheader
time	muscle1	muscle2	contactForce.block.force.X	contactForce.block.force.Y	contactForce.block.force.Z	contactForce.block.torque.X	contactForce.block.torque.Y	contactForce.block.torque.Z	contactForce.ground.force.X	contactForce.ground.force.Y	contactForce.ground.force.Z	contactForce.ground.torque.X	contactForce.ground.torque.Y	contactForce.ground.torque.Z	ground_prescribedForce_fx	ground_prescribedForce_fy	ground_prescribedForce_fz	ground_prescribedForce_px	ground_prescribedForce_py	ground_prescribedForce_pz
      2.63607629	    542.07229978	    333.25179269	    165.72601355	   1006.34592249	    -75.08539604	      0.25154276	      0.33267561	    -20.00760469	   -165.72601355	  -1006.34592249	     75.08539604	     35.23373584	     -2.91854021	     63.67201398	   -387.76616279	      0.00000000	      0.00000000	      0.06590191	      0.00000000	      0.00000000
      2.63755777	    539.13080370	    340.01897493	    179.63506547	   1061.59574481	    -80.66741146	     -0.30300713	      0.42289084	    -20.66630485	   -179.63506547	  -1061.59574481	     80.66741146	     37.93989933	     -3.25474603	     67.21075322	   -387.98408907	      0.00000000	      0.00000000	      0.06593894	      0.00000000	      0.00000000
      2.63940801	    534.99766458	    349.16851379	    197.67776888	   1127.09859841	    -91.02768188	     -0.71761103	      0.36832751	    -21.33324677	   -197.67776888	  -1127.09859841	     91.02768188	     41.10357355	     -3.40774933	     71.40239937	   -388.25625781	      0.00000000	      0.00000000	      0.06598520	      0.00000000	      0.00000000
      2.64097886	    531.06956175	    357.48321468	    210.45167041	   1180.14876160	    -96.78211185	     -1.12909520	      0.42664430	    -21.91249197	   -210.45167041	  -1180.14876160	     96.78211185	     43.61654089	     -3.66875199	     74.76714082	   -388.48732966	      0.00000000	      0.00000000	      0.06602447	      0.00000000	      0.00000000
      2.64254971	    526.69768994	    366.26632143	    224.49420599	   1232.23984803	   -106.71580379	     -1.24215700	      0.31552378	    -22.31480822	   -224.49420599	  -1232.23984803	    106.71580379	     46.00629534	     -3.64922107	     77.98955221	   -388.71840150	      0.00000000	      0.00000000	      0.06606374	      0.00000000	      0.00000000
      2.64412056	    521.86458490	    375.45318992	    235.92040979	   1280.25023726	   -113.19559132	     -1.44366551	      0.31528481	    -22.74534497	   -235.92040979	  -1280.25023726	    113.19559132	     48.17762018	     -3.77973489	     80.96431463	   -388.94947335	      0.00000000	      0.00000000	      0.06610301	      0.00000000	      0.00000000
      2.64569141	    516.51522385	    385.00137928	    247.94786067	   1323.96333283	   -122.70522347	     -1.41388220	      0.16541885	    -23.04397453	   -247.94786067	  -1323.96333283	    122.70522347	     50.12360360	     -3.66806664	     83.67785596	   -389.18054520	      0.00000000	      0.00000000	      0.06614229	      0.00000000	      0.00000000
      2.64726226	    510.62716100	    394.84000240	    258.29472782	   1363.17668233	   -130.01022133	     -1.41601246	      0.07782844	    -23.32425536	   -258.29472782	  -1363.17668233	    130.01022133	     51.83845485	     -3.64308276	     86.11762186	   -389.41161705	      0.00000000	      0.00000000	      0.06618156	      0.00000000	      0.00000000
      2.64920568	    502.53303973	    407.32687330	    270.98038662	   1405.20783200	   -140.99040335	     -1.21968224	     -0.15277858	    -23.53645305	   -270.98038662	  -1405.20783200	    140.99040335	     53.63420959	     -3.41259238	     88.74104479	   -389.69749316	      0.00000000	      0.00000000	      0.06623014	      0.00000000	      0.00000000
      2.65114910	    493.50959391	    420.02368869	    281.79470816	   1439.80514685	   -149.38769503	     -1.04464226	     -0.32434214	    -23.68740544	   -281.79470816	  -1439.80514685	    149.38769503	     55.06510674	     -3.27358035	     90.91097231	   -389.98336928	      0.00000000	      0.00000000	      0.06627873	      0.00000000	      0.00000000
      2.65309251	    483.51435936	    432.79129708	    291.15130071	   1466.74820192	   -159.51301883	     -0.68404975	     -0.70380973	    -23.75773505	   -291.15130071	  -1466.74820192	    159.51301883	     56.12977501	     -2.81401239	     92.61315416	   -390.26924539	      0.00000000	      0.00000000	      0.06632731	      0.00000000	      0.00000000
      2.65503593	    472.59915596	    445.42833026	    292.51639336	   1485.84918263	   -166.81386255	     -0.37086576	     -1.39787140	    -24.07232148	   -292.51639336	  -1485.84918263	    166.81386255	     56.82902882	     -1.88471664	     93.83575304	   -390.55512151	      0.00000000	      0.00000000	      0.06637590	      0.00000000	      0.00000000
      2.65661537	    463.23492492	    455.36885595	    261.08277498	   1495.44292414	   -163.64294408	     -0.50309534	     -2.84452958	    -25.82985565	   -261.08277498	  -1495.44292414	    163.64294408	     57.12795228	      0.46953270	     94.46772193	   -390.78745639	      0.00000000	      0.00000000	      0.06641538	      0.00000000	      0.00000000
      2.65772207	    456.88448135	    461.75923683	    144.10762202	   1498.77628066	   -105.41673756	     -3.33769836	     -2.55385619	    -31.70926780	   -144.10762202	  -1498.77628066	    105.41673756	     57.18706261	      1.80723350	     94.70764557	   -390.95025231	      0.00000000	      0.00000000	      0.06644305	      0.00000000	      0.00000000
      2.65882878	    452.13401023	    466.50619750	     38.89433783	   1498.72692040	    -32.61397529	     -6.85355841	     -0.73251419	    -36.94235878	    -38.89433783	  -1498.72692040	     32.61397529	     57.10036407	      0.68662306	     94.75616224	   -391.11304822	      0.00000000	      0.00000000	      0.06647072	      0.00000000	      0.00000000
      2.65993548	    450.21997237	    468.56808453	     14.11050425	   1494.76478917	    -12.63577594	     -7.69585318	     -0.27234365	    -38.11297862	    -14.11050425	  -1494.76478917	     12.63577594	     56.84852793	      0.28578328	     94.59214676	   -391.27584413	      0.00000000	      0.00000000	      0.06649839	      0.00000000	      0.00000000
      2.66139704	    452.20939193	    466.99804412	      5.74006635	   1483.30377370	     -5.34883894	     -7.77584362	     -0.11376450	    -38.33635620	     -5.74006635	  -1483.30377370	      5.34883894	     56.25426930	      0.12703198	     94.03986057	   -391.49083968	      0.00000000	      0.00000000	      0.06653493	      0.00000000	      0.00000000
      2.66372020	    464.34800810	    455.64267096	      2.27894351	   1450.53940680	     -2.18229519	     -7.28265880	     -0.04692566	    -37.93231547	     -2.27894351	  -1450.53940680	      2.18229519	     54.69154020	      0.05434438	     92.37192807	   -391.83257585	      0.00000000	      0.00000000	      0.06659301	      0.00000000	      0.00000000
      2.66762432	    497.98467527	    419.70621873	      0.88790463	   1362.87431001	     -0.86447303	     -5.67010093	     -0.01959520	    -36.24645905	     -0.88790463	  -1362.87431001	      0.86447303	     50.53937257	      0.02294100	     87.60668686	   -392.40687031	      0.00000000	      0.00000000	      0.06669061	      0.00000000	      0.00000000
      2.67264433	    530.80370981	    363.85532926	      0.42315251	   1199.21802149	     -0.41460419	     -2.43059914	     -0.01050643	    -32.56827662	     -0.42315251	  -1199.21802149	      0.41460419	     42.50811603	      0.01211612	     78.12803683	   -393.14531257	      0.00000000	      0.00000000	      0.06681611	      0.00000000	      0.00000000
      2.67766434	    541.81729199	    318.08084467	      0.24871257	    984.76115250	     -0.24440790	      2.05242602	     -0.00735521	    -27.35593975	     -0.24871257	   -984.76115250	      0.24440790	     31.46208448	      0.00826337	     65.11986764	   -393.88375483	      0.00000000	      0.00000000	      0.06694161	      0.00000000	      0.00000000
      2.68149242	    539.26125953	    295.47577704	      0.17499900	    797.40732311	     -0.17256930	      6.21125550	     -0.00624188	    -22.45703640	     -0.17499900	   -797.40732311	      0.17256930	     21.33683517	      0.00686404	     53.26786409	   -394.44686461	      0.00000000	      0.00000000	      0.06703731	      0.00000000	      0.00000000
